G04 #@! TF.FileFunction,Soldermask,Top*
%FSLAX46Y46*%
G04 Gerber Fmt 4.6, Leading zero omitted, Abs format (unit mm)*
G04 Created by KiCad (PCBNEW (2014-10-31 BZR 5247)-product) date sam. 01 nov. 2014 21:35:31 CET*
%MOMM*%
G01*
G04 APERTURE LIST*
%ADD10C,0.100000*%
%ADD11C,1.778000*%
%ADD12R,1.778000X1.778000*%
%ADD13R,2.286000X1.778000*%
%ADD14O,2.286000X1.778000*%
%ADD15C,1.998980*%
G04 APERTURE END LIST*
D10*
D11*
X134620000Y-57150000D03*
D12*
X137160000Y-57150000D03*
D11*
X137160000Y-60960000D03*
X132080000Y-60960000D03*
X135890000Y-48260000D03*
X140970000Y-48260000D03*
X155575000Y-57150000D03*
X160655000Y-57150000D03*
X134620000Y-45720000D03*
X129540000Y-45720000D03*
X157480000Y-53340000D03*
D12*
X160020000Y-53340000D03*
D11*
X160020000Y-59690000D03*
D12*
X160020000Y-62230000D03*
D11*
X160020000Y-45720000D03*
D12*
X162560000Y-45720000D03*
D11*
X143510000Y-60960000D03*
D12*
X146050000Y-60960000D03*
D11*
X140970000Y-53340000D03*
X133350000Y-53340000D03*
X133350000Y-50800000D03*
X140970000Y-50800000D03*
X156210000Y-49530000D03*
X163830000Y-49530000D03*
X129540000Y-54610000D03*
X129540000Y-62230000D03*
X153670000Y-46990000D03*
X153670000Y-54610000D03*
X156210000Y-59690000D03*
X148590000Y-59690000D03*
D13*
X143510000Y-48260000D03*
D14*
X143510000Y-50800000D03*
X143510000Y-53340000D03*
X143510000Y-55880000D03*
X151130000Y-55880000D03*
X151130000Y-53340000D03*
X151130000Y-50800000D03*
X151130000Y-48260000D03*
D15*
X139700000Y-58420000D03*
X139700000Y-60960000D03*
X140970000Y-55880000D03*
X163195000Y-57150000D03*
X129540000Y-50800000D03*
X132080000Y-48260000D03*
X163195000Y-53340000D03*
X147955000Y-45085000D03*
X153670000Y-62230000D03*
M02*
