M48
;DRILL file {kicad (2014-10-31 BZR 5247)-product} date sam. 01 nov. 2014 21:36:11 CET
;FORMAT={-:-/ absolute / inch / decimal}
FMAT,2
INCH,TZ
T1C0.032
T2C0.032
%
G90
G05
M72
T1
X5.1Y-2.
X5.2Y-1.9
X5.5Y-2.3
X5.5Y-2.4
X5.55Y-2.2
X5.825Y-1.775
X6.05Y-2.45
X6.425Y-2.1
X6.425Y-2.25
T2
X5.1Y-1.8
X5.1Y-2.15
X5.1Y-2.45
X5.2Y-2.4
X5.25Y-2.
X5.25Y-2.1
X5.3Y-1.8
X5.3Y-2.25
X5.35Y-1.9
X5.4Y-2.25
X5.4Y-2.4
X5.55Y-1.9
X5.55Y-2.
X5.55Y-2.1
X5.65Y-1.9
X5.65Y-2.
X5.65Y-2.1
X5.65Y-2.2
X5.65Y-2.4
X5.75Y-2.4
X5.85Y-2.35
X5.95Y-1.9
X5.95Y-2.
X5.95Y-2.1
X5.95Y-2.2
X6.05Y-1.85
X6.05Y-2.15
X6.125Y-2.25
X6.15Y-1.95
X6.15Y-2.35
X6.2Y-2.1
X6.3Y-1.8
X6.3Y-2.1
X6.3Y-2.35
X6.3Y-2.45
X6.325Y-2.25
X6.4Y-1.8
X6.45Y-1.95
T0
M30
