%FSLAX46Y46*%
G04 Gerber Fmt 4.6, Leading zero omitted, Abs format (unit mm)*
G04 Created by KiCad (PCBNEW (2014-09-19 BZR 5142)-product) date 24/10/2014 22:30:01*
%MOMM*%
G01*
G04 APERTURE LIST*
%ADD10C,0.100000*%
%ADD11C,1.778000*%
%ADD12R,1.778000X1.778000*%
%ADD13R,2.286000X1.778000*%
%ADD14O,2.286000X1.778000*%
%ADD15C,1.998980*%
%ADD16C,0.508000*%
G04 APERTURE END LIST*
D10*
D11*
X134620000Y-57150000D03*
D12*
X137160000Y-57150000D03*
D11*
X137160000Y-60960000D03*
X132080000Y-60960000D03*
X135890000Y-48260000D03*
X140970000Y-48260000D03*
X155575000Y-57150000D03*
X160655000Y-57150000D03*
X134620000Y-45720000D03*
X129540000Y-45720000D03*
X157480000Y-53340000D03*
D12*
X160020000Y-53340000D03*
D11*
X160020000Y-59690000D03*
D12*
X160020000Y-62230000D03*
D11*
X160020000Y-45720000D03*
D12*
X162560000Y-45720000D03*
D11*
X143510000Y-60960000D03*
D12*
X146050000Y-60960000D03*
D11*
X140970000Y-53340000D03*
X133350000Y-53340000D03*
X133350000Y-50800000D03*
X140970000Y-50800000D03*
X156210000Y-49530000D03*
X163830000Y-49530000D03*
X129540000Y-54610000D03*
X129540000Y-62230000D03*
X153670000Y-46990000D03*
X153670000Y-54610000D03*
X156210000Y-59690000D03*
X148590000Y-59690000D03*
D13*
X143510000Y-48260000D03*
D14*
X143510000Y-50800000D03*
X143510000Y-53340000D03*
X143510000Y-55880000D03*
X151130000Y-55880000D03*
X151130000Y-53340000D03*
X151130000Y-50800000D03*
X151130000Y-48260000D03*
D15*
X139700000Y-58420000D03*
X139700000Y-60960000D03*
X140970000Y-55880000D03*
X163195000Y-57150000D03*
X129540000Y-50800000D03*
X132080000Y-48260000D03*
X163195000Y-53340000D03*
X147955000Y-45720000D03*
X153670000Y-62230000D03*
D16*
X133350000Y-55880000D02*
X134620000Y-57150000D01*
X133350000Y-53340000D02*
X133350000Y-55880000D01*
X132080000Y-59690000D02*
X134620000Y-57150000D01*
X132080000Y-60960000D02*
X132080000Y-59690000D01*
X155575000Y-57150000D02*
X157480000Y-55880000D01*
X157480000Y-55880000D02*
X157480000Y-53340000D01*
X156845000Y-52705000D02*
X157480000Y-53340000D01*
X151765000Y-52705000D02*
X156845000Y-52705000D01*
X151130000Y-53340000D02*
X151765000Y-52705000D01*
X132080000Y-48260000D02*
X134620000Y-45720000D01*
X134620000Y-46990000D02*
X135890000Y-48260000D01*
X134620000Y-45720000D02*
X134620000Y-46990000D01*
X137160000Y-48260000D02*
X139700000Y-45720000D01*
X139700000Y-45720000D02*
X144780000Y-45720000D01*
X144780000Y-45720000D02*
X146685000Y-47625000D01*
X146685000Y-47625000D02*
X146685000Y-50800000D01*
X146685000Y-50800000D02*
X149225000Y-53340000D01*
X149225000Y-53340000D02*
X151130000Y-53340000D01*
X135890000Y-48260000D02*
X137160000Y-48260000D01*
X140970000Y-48260000D02*
X140970000Y-50800000D01*
X140970000Y-50800000D02*
X143510000Y-50800000D01*
X140970000Y-50800000D02*
X140970000Y-53340000D01*
X140970000Y-53340000D02*
X140970000Y-55880000D01*
X129540000Y-45720000D02*
X129540000Y-50800000D01*
X129540000Y-54610000D02*
X129540000Y-50800000D01*
X129540000Y-50800000D02*
X133350000Y-50800000D01*
X156210000Y-59690000D02*
X160020000Y-59690000D01*
X154940000Y-59690000D02*
X153670000Y-58420000D01*
X153670000Y-58420000D02*
X153670000Y-54610000D01*
X156210000Y-59690000D02*
X154940000Y-59690000D01*
X149860000Y-58420000D02*
X144780000Y-53340000D01*
X144780000Y-53340000D02*
X143510000Y-53340000D01*
X153670000Y-58420000D02*
X149860000Y-58420000D01*
X163830000Y-46990000D02*
X163830000Y-49530000D01*
X162560000Y-45720000D02*
X163830000Y-46990000D01*
X160020000Y-62230000D02*
X153670000Y-62230000D01*
X163195000Y-62230000D02*
X165100000Y-59690000D01*
X165100000Y-59690000D02*
X165100000Y-51435000D01*
X165100000Y-51435000D02*
X163830000Y-49530000D01*
X160020000Y-62230000D02*
X163195000Y-62230000D01*
X146050000Y-59055000D02*
X146050000Y-60960000D01*
X143510000Y-56515000D02*
X146050000Y-59055000D01*
X143510000Y-55880000D02*
X143510000Y-56515000D01*
X147955000Y-59055000D02*
X148590000Y-59690000D01*
X146050000Y-59055000D02*
X147955000Y-59055000D01*
X151130000Y-59690000D02*
X153670000Y-62230000D01*
X148590000Y-59690000D02*
X151130000Y-59690000D01*
X152400000Y-45720000D02*
X147955000Y-45720000D01*
X153670000Y-46990000D02*
X152400000Y-45720000D01*
X154940000Y-45720000D02*
X160020000Y-45720000D01*
X153670000Y-46990000D02*
X154940000Y-45720000D01*
X147955000Y-48260000D02*
X147955000Y-45720000D01*
X147955000Y-48895000D02*
X147955000Y-48260000D01*
X149860000Y-50800000D02*
X147955000Y-48895000D01*
X151130000Y-50800000D02*
X149860000Y-50800000D01*
X130175000Y-62865000D02*
X141605000Y-62865000D01*
X141605000Y-62865000D02*
X143510000Y-60960000D01*
X129540000Y-62230000D02*
X130175000Y-62865000D01*
X153670000Y-49530000D02*
X152400000Y-48260000D01*
X152400000Y-48260000D02*
X151130000Y-48260000D01*
X156210000Y-49530000D02*
X153670000Y-49530000D01*
X138430000Y-58420000D02*
X137160000Y-57150000D01*
X139700000Y-58420000D02*
X138430000Y-58420000D01*
X137160000Y-60960000D02*
X139700000Y-60960000D01*
X160655000Y-57150000D02*
X163195000Y-57150000D01*
X160020000Y-53340000D02*
X163195000Y-53340000D01*
M02*
